<svg width="29" height="30" viewBox="0 0 29 30" fill="none" xmlns="http://www.w3.org/2000/svg">
<path d="M28.3497 15.0608C28.3497 7.23222 22.0034 0.885929 14.1748 0.885929C6.34629 0.885929 0 7.23222 0 15.0608C0 22.1358 5.18354 28 11.96 29.0634V19.1582H8.36094V15.0608H11.96V11.9379C11.96 8.38531 14.0762 6.42298 17.3141 6.42298C18.8649 6.42298 20.4871 6.69983 20.4871 6.69983V10.1882H18.6997C16.9388 10.1882 16.3897 11.2808 16.3897 12.4018V15.0608H20.321L19.6925 19.1582H16.3897V29.0634C23.1661 28 28.3497 22.1358 28.3497 15.0608Z" fill="#1877F2"/>
<path d="M19.6924 19.1582L20.3209 15.0608H16.3896V12.4018C16.3896 11.2808 16.9387 10.1882 18.6996 10.1882H20.487V6.69981C20.487 6.69981 18.8648 6.42296 17.314 6.42296C14.0761 6.42296 11.9599 8.38529 11.9599 11.9379V15.0608H8.36084V19.1582H11.9599V29.0634C12.6816 29.1766 13.4213 29.2356 14.1747 29.2356C14.9282 29.2356 15.6679 29.1766 16.3896 29.0634V19.1582H19.6924Z" fill="white"/>
</svg>
