<svg width="29" height="29" viewBox="0 0 29 29" fill="none" xmlns="http://www.w3.org/2000/svg">
<path fill-rule="evenodd" clip-rule="evenodd" d="M24.8694 4.13949C22.2047 1.47143 18.6608 0.00135366 14.8848 0C7.10396 0 0.771543 6.33174 0.768836 14.1146C0.767482 16.6026 1.41792 19.0311 2.65313 21.1712L0.650391 28.4864L8.13342 26.5236C10.195 27.6485 12.5165 28.2407 14.8787 28.2414H14.8848C22.6642 28.2414 28.9974 21.909 29.0001 14.1261C29.0014 10.3542 27.5347 6.80823 24.8694 4.14016V4.13949ZM14.8848 25.8576H14.88C12.7751 25.857 10.7101 25.2911 8.90842 24.2224L8.47996 23.9679L4.03928 25.1327L5.22441 20.803L4.94555 20.359C3.77125 18.491 3.1506 16.3319 3.15195 14.1153C3.15466 7.64682 8.41768 2.38379 14.8896 2.38379C18.0232 2.38515 20.9688 3.60683 23.1841 5.8248C25.3993 8.0421 26.6183 10.9904 26.617 14.1248C26.6142 20.5939 21.3512 25.857 14.8848 25.857V25.8576ZM21.3201 17.071C20.9674 16.8944 19.2334 16.0415 18.9099 15.9238C18.5864 15.806 18.3515 15.7471 18.1166 16.1004C17.8818 16.4538 17.2057 17.2483 16.9999 17.4832C16.7941 17.7187 16.5883 17.7478 16.2357 17.5711C15.8831 17.3945 14.7467 17.0223 13.3992 15.8209C12.3508 14.8855 11.6427 13.7309 11.4371 13.3775C11.2313 13.0242 11.4154 12.8334 11.5913 12.6581C11.7497 12.4997 11.944 12.2459 12.1206 12.0401C12.2973 11.8343 12.3555 11.6868 12.4732 11.4519C12.591 11.2164 12.5321 11.0107 12.4442 10.834C12.3561 10.6574 11.6509 8.92125 11.3565 8.21535C11.0702 7.5277 10.7792 7.6211 10.5633 7.6096C10.3575 7.59944 10.1227 7.59742 9.88711 7.59742C9.65157 7.59742 9.2698 7.6854 8.9463 8.03871C8.62279 8.39198 7.71175 9.24546 7.71175 10.9809C7.71175 12.7163 8.97543 14.3942 9.15207 14.6297C9.3287 14.8652 11.6394 18.4274 15.1772 19.9557C16.0185 20.3191 16.6757 20.5364 17.188 20.6988C18.0328 20.9675 18.8016 20.9296 19.4094 20.8389C20.0869 20.7374 21.4961 19.9854 21.7898 19.1617C22.0835 18.338 22.0835 17.6314 21.9956 17.4845C21.9076 17.3376 21.6721 17.249 21.3194 17.0723L21.3201 17.071Z" fill="#25D366"/>
</svg>
