<svg width="29" height="30" viewBox="0 0 29 30" fill="none" xmlns="http://www.w3.org/2000/svg">
<path d="M14.5 29.1663C22.3286 29.1663 28.6749 22.8355 28.6749 15.0261C28.6749 7.21674 22.3286 0.885986 14.5 0.885986C6.67149 0.885986 0.325195 7.21674 0.325195 15.0261C0.325195 22.8355 6.67149 29.1663 14.5 29.1663Z" fill="url(#paint0_linear_568_112)"/>
<path fill-rule="evenodd" clip-rule="evenodd" d="M6.75025 14.872C10.8791 13.0659 13.639 11.8986 15.0079 11.3259C18.938 9.69606 19.7549 9.40973 20.2848 9.40973C20.3952 9.40973 20.6601 9.43175 20.8368 9.56391C20.9692 9.67403 21.0134 9.82821 21.0355 9.93833C21.0576 10.0485 21.0796 10.2907 21.0576 10.489C20.8368 12.7135 19.9315 18.1537 19.4458 20.6425C19.2471 21.6997 18.8496 22.0522 18.4743 22.0962C17.6574 22.1623 17.0171 21.5456 16.2222 21.039C14.9858 20.2241 14.2793 19.7175 13.0649 18.9246C11.6739 17.9995 12.5792 17.493 13.374 16.678C13.5727 16.4578 17.2158 13.176 17.282 12.8677C17.282 12.8236 17.3041 12.6915 17.2158 12.6254C17.1275 12.5593 17.0171 12.5813 16.9288 12.6034C16.7963 12.6254 14.8092 13.9469 10.9453 16.5459C10.3712 16.9423 9.86342 17.1185 9.39975 17.1185C8.89193 17.1185 7.92045 16.8322 7.19183 16.5899C6.30867 16.3036 5.60213 16.1494 5.66837 15.6649C5.73461 15.4006 6.08787 15.1363 6.75025 14.872Z" fill="white"/>
<defs>
<linearGradient id="paint0_linear_568_112" x1="0.346215" y1="15.0159" x2="28.6754" y2="15.0159" gradientUnits="userSpaceOnUse">
<stop stop-color="#2AABEE"/>
<stop offset="1" stop-color="#229ED9"/>
</linearGradient>
</defs>
</svg>
