<svg width="26" height="23" viewBox="0 0 26 23" fill="none" xmlns="http://www.w3.org/2000/svg">
<path fill-rule="evenodd" clip-rule="evenodd" d="M9.80088 0.00511111C9.93672 0 10.0776 0.0408889 10.1933 0.112444C10.2939 0.178889 10.4197 0.316889 10.47 0.419111C10.5254 0.526444 10.5656 0.684889 10.5656 0.766667C10.5656 0.848444 10.5254 0.996667 10.4801 1.08356C10.4348 1.17556 9.26756 2.68333 7.889 4.43133C6.51044 6.18444 5.38344 7.62578 5.38344 7.64111C5.38344 7.65644 8.75438 7.66667 12.88 7.66667C17.0056 7.66667 20.3766 7.65644 20.3766 7.64111C20.3766 7.62578 19.2496 6.18444 17.871 4.43133C16.4924 2.68333 15.3252 1.17556 15.2799 1.08356C15.2346 0.996667 15.1944 0.848444 15.1944 0.766667C15.1944 0.684889 15.2346 0.526444 15.29 0.419111C15.3403 0.316889 15.4661 0.178889 15.5667 0.112444C15.6723 0.046 15.8283 0 15.9491 0C16.0597 0 16.2157 0.0408889 16.3013 0.0868889C16.3868 0.138 17.7603 1.84511 22.3388 7.66667H23.7475C25.0556 7.66667 25.1713 7.67178 25.3575 7.76889C25.4917 7.83704 25.5923 7.93926 25.6594 8.07555C25.755 8.26978 25.76 8.38222 25.76 9.96667C25.76 11.5511 25.755 11.6636 25.6594 11.8578C25.5923 11.9941 25.4917 12.0963 25.3575 12.1644C25.1915 12.2462 25.0556 12.2667 24.0745 12.2616L22.6457 17.3369C21.8608 20.1276 21.1765 22.494 21.1313 22.5911C21.0809 22.6882 20.9602 22.8211 20.6784 23H5.08156L4.90044 22.8824C4.79981 22.8211 4.67906 22.6882 4.62875 22.5911C4.58347 22.494 3.89922 20.1276 1.68547 12.2616L1.14209 12.2667C0.704375 12.2667 0.568531 12.2462 0.4025 12.1644C0.268333 12.0963 0.167708 11.9941 0.100625 11.8578C0.00503125 11.6636 0 11.5511 0 9.96667C0 8.38222 0.00503125 8.26978 0.100625 8.07555C0.167708 7.93926 0.268333 7.83704 0.4025 7.76889C0.588656 7.67178 0.704375 7.66667 3.42125 7.66667L6.33938 3.94578C7.94938 1.90133 9.33297 0.178889 9.42353 0.117556C9.52416 0.046 9.66503 0.00511111 9.79584 0.00511111H9.80088ZM1.51441 10.7333H24.2557V9.2H1.51441V10.7333ZM4.59353 16.9587L5.86644 21.4718H19.9036C21.8759 14.4747 22.4595 12.4047 22.4696 12.3587C22.4947 12.2718 22.0117 12.2667 12.88 12.2667C3.74828 12.2667 3.26528 12.2718 3.29547 12.3587C3.31056 12.4047 3.89419 14.4747 4.59353 16.9587ZM8.05503 13.8204C8.18081 13.8358 8.33678 13.8869 8.40722 13.9431C8.47766 13.9942 8.57325 14.1067 8.61853 14.1884C8.67387 14.2856 8.83991 15.1749 9.08141 16.652C9.29272 17.9196 9.46378 19.0593 9.46378 19.182C9.46378 19.32 9.42856 19.458 9.35309 19.5756C9.28769 19.6727 9.15688 19.7953 9.06128 19.8464C8.9355 19.9129 8.81978 19.9333 8.65878 19.9129C8.533 19.8976 8.37703 19.8464 8.30659 19.7902C8.23616 19.7391 8.14056 19.6267 8.09528 19.5449C8.03994 19.4478 7.87391 18.5584 7.63241 17.0864C7.42109 15.8138 7.25003 14.674 7.25003 14.5564C7.25003 14.4133 7.28525 14.2753 7.36072 14.1578C7.42613 14.0607 7.55694 13.938 7.65253 13.8869C7.77831 13.8204 7.89403 13.8 8.05503 13.8204ZM12.8699 13.8C12.9605 13.8 13.1265 13.846 13.2372 13.9022C13.3714 13.9704 13.472 14.0726 13.5391 14.2089C13.6347 14.4031 13.6397 14.5156 13.6397 16.8667C13.6397 19.2178 13.6347 19.3302 13.5391 19.5244C13.472 19.6607 13.3714 19.763 13.2372 19.8311C13.1265 19.8873 12.9655 19.9333 12.885 19.9333C12.7995 19.9333 12.6435 19.8873 12.5328 19.8311C12.3987 19.763 12.2981 19.6607 12.231 19.5244C12.1354 19.3302 12.1303 19.2178 12.1303 16.8667C12.1303 14.5156 12.1354 14.4031 12.231 14.2089C12.2964 14.0811 12.402 13.9687 12.5178 13.9022C12.6234 13.8511 12.7844 13.8051 12.8699 13.8ZM17.8408 13.8051C17.9213 13.8 18.0723 13.8409 18.1678 13.892C18.2634 13.938 18.3942 14.0607 18.4597 14.1578C18.5351 14.2753 18.5703 14.4133 18.5703 14.5564C18.5703 14.674 18.3993 15.8138 18.188 17.0864C17.9465 18.5584 17.7804 19.4478 17.7251 19.5449C17.6798 19.6267 17.5842 19.7391 17.5138 19.7902C17.4433 19.8464 17.2874 19.8976 17.1616 19.9129C17.0006 19.9333 16.8849 19.9129 16.7591 19.8464C16.6635 19.7953 16.5327 19.6727 16.4673 19.5756C16.3918 19.458 16.3566 19.32 16.3566 19.182C16.3566 19.0593 16.5277 17.9298 16.7339 16.6622C16.9402 15.3998 17.1415 14.3009 17.1817 14.2242C17.222 14.1424 17.2924 14.0402 17.3427 13.9942C17.3981 13.9482 17.4937 13.8869 17.5641 13.8562C17.6345 13.8307 17.7553 13.8051 17.8408 13.8051Z" fill="#454444"/>
</svg>
